<svg width="1920" height="1080" viewBox="0 0 1920 1080" xmlns="http://www.w3.org/2000/svg">
  <defs>
    <linearGradient id="skyGradient" x1="0%" y1="0%" x2="0%" y2="100%">
      <stop offset="0%" style="stop-color:#0ea5e9;stop-opacity:1" />
      <stop offset="50%" style="stop-color:#38bdf8;stop-opacity:1" />
      <stop offset="100%" style="stop-color:#7dd3fc;stop-opacity:1" />
    </linearGradient>
    <linearGradient id="oceanGradient" x1="0%" y1="0%" x2="0%" y2="100%">
      <stop offset="0%" style="stop-color:#0ea5e9;stop-opacity:1" />
      <stop offset="100%" style="stop-color:#0369a1;stop-opacity:1" />
    </linearGradient>
    <linearGradient id="cliffGradient" x1="0%" y1="0%" x2="0%" y2="100%">
      <stop offset="0%" style="stop-color:#92400e;stop-opacity:1" />
      <stop offset="100%" style="stop-color:#78350f;stop-opacity:1" />
    </linearGradient>
  </defs>
  
  <!-- Sky -->
  <rect width="100%" height="100%" fill="url(#skyGradient)"/>
  
  <!-- Ocean -->
  <rect x="0" y="600" width="1920" height="480" fill="url(#oceanGradient)"/>
  
  <!-- Coastal cliffs -->
  <polygon points="0,400 400,300 800,200 1200,350 1600,250 1920,300 1920,600 0,600" fill="url(#cliffGradient)"/>
  
  <!-- Cliff details -->
  <polygon points="200,450 300,400 400,450 400,600 200,600" fill="#78350f" opacity="0.8"/>
  <polygon points="1000,350 1100,300 1200,350 1200,600 1000,600" fill="#78350f" opacity="0.8"/>
  
  <!-- Waves -->
  <path d="M 0 650 Q 200 630 400 650 Q 600 670 800 650 Q 1000 630 1200 650 Q 1400 670 1600 650 Q 1800 630 1920 650" stroke="#ffffff" stroke-width="3" fill="none" opacity="0.3"/>
  <path d="M 0 680 Q 200 660 400 680 Q 600 700 800 680 Q 1000 660 1200 680 Q 1400 700 1600 680 Q 1800 660 1920 680" stroke="#ffffff" stroke-width="2" fill="none" opacity="0.2"/>
  
  <!-- Sun -->
  <circle cx="1600" cy="150" r="70" fill="#fbbf24" opacity="0.9"/>
  
  <!-- Clouds -->
  <ellipse cx="400" cy="120" rx="100" ry="40" fill="rgba(255,255,255,0.4)"/>
  <ellipse cx="800" cy="100" rx="80" ry="30" fill="rgba(255,255,255,0.3)"/>
  <ellipse cx="1200" cy="140" rx="120" ry="50" fill="rgba(255,255,255,0.35)"/>
  
  <!-- Seagulls -->
  <path d="M 300 200 Q 320 180 340 200 Q 320 220 300 200" fill="rgba(255,255,255,0.8)"/>
  <path d="M 600 180 Q 620 160 640 180 Q 620 200 600 180" fill="rgba(255,255,255,0.8)"/>
  <path d="M 1000 220 Q 1020 200 1040 220 Q 1020 240 1000 220" fill="rgba(255,255,255,0.8)"/>
</svg>
