<svg width="1920" height="1080" viewBox="0 0 1920 1080" xmlns="http://www.w3.org/2000/svg">
  <defs>
    <linearGradient id="sunsetGradient" x1="0%" y1="0%" x2="100%" y2="100%">
      <stop offset="0%" style="stop-color:#dc2626;stop-opacity:1" />
      <stop offset="25%" style="stop-color:#ea580c;stop-opacity:1" />
      <stop offset="50%" style="stop-color:#f59e0b;stop-opacity:1" />
      <stop offset="75%" style="stop-color:#fbbf24;stop-opacity:1" />
      <stop offset="100%" style="stop-color:#fef3c7;stop-opacity:1" />
    </linearGradient>
    <linearGradient id="bridgeGradient" x1="0%" y1="0%" x2="0%" y2="100%">
      <stop offset="0%" style="stop-color:#dc2626;stop-opacity:0.9" />
      <stop offset="100%" style="stop-color:#dc2626;stop-opacity:0.7" />
    </linearGradient>
  </defs>
  
  <!-- Sky gradient -->
  <rect width="100%" height="100%" fill="url(#sunsetGradient)"/>
  
  <!-- Water -->
  <rect x="0" y="700" width="1920" height="380" fill="#0ea5e9" opacity="0.6"/>
  
  <!-- Bridge towers -->
  <rect x="400" y="300" width="80" height="400" fill="url(#bridgeGradient)"/>
  <rect x="1440" y="300" width="80" height="400" fill="url(#bridgeGradient)"/>
  
  <!-- Bridge cables -->
  <path d="M 440 300 Q 960 200 1520 300" stroke="#dc2626" stroke-width="8" fill="none" opacity="0.8"/>
  <path d="M 440 320 Q 960 220 1520 320" stroke="#dc2626" stroke-width="6" fill="none" opacity="0.7"/>
  <path d="M 440 340 Q 960 240 1520 340" stroke="#dc2626" stroke-width="4" fill="none" opacity="0.6"/>
  
  <!-- Bridge deck -->
  <rect x="440" y="650" width="1040" height="20" fill="#dc2626" opacity="0.9"/>
  
  <!-- Sun -->
  <circle cx="1600" cy="200" r="80" fill="#fbbf24" opacity="0.8"/>
  
  <!-- Clouds -->
  <ellipse cx="300" cy="150" rx="100" ry="40" fill="rgba(255,255,255,0.3)"/>
  <ellipse cx="500" cy="120" rx="80" ry="30" fill="rgba(255,255,255,0.2)"/>
  <ellipse cx="1200" cy="180" rx="120" ry="50" fill="rgba(255,255,255,0.25)"/>
</svg>
