<svg width="1920" height="1080" viewBox="0 0 1920 1080" xmlns="http://www.w3.org/2000/svg">
  <defs>
    <linearGradient id="skyGradient" x1="0%" y1="0%" x2="0%" y2="100%">
      <stop offset="0%" style="stop-color:#7c2d12;stop-opacity:1" />
      <stop offset="30%" style="stop-color:#92400e;stop-opacity:1" />
      <stop offset="100%" style="stop-color:#a16207;stop-opacity:1" />
    </linearGradient>
    <radialGradient id="treeGradient" cx="50%" cy="50%" r="50%">
      <stop offset="0%" style="stop-color:#7c2d12;stop-opacity:1" />
      <stop offset="100%" style="stop-color:#451a03;stop-opacity:1" />
    </radialGradient>
    <radialGradient id="mistGradient" cx="50%" cy="50%" r="50%">
      <stop offset="0%" style="stop-color:rgba(255,255,255,0.1);stop-opacity:1" />
      <stop offset="100%" style="stop-color:rgba(255,255,255,0.3);stop-opacity:1" />
    </radialGradient>
  </defs>
  
  <!-- Sky -->
  <rect width="100%" height="100%" fill="url(#skyGradient)"/>
  
  <!-- Mist layers -->
  <ellipse cx="960" cy="300" rx="800" ry="200" fill="url(#mistGradient)"/>
  <ellipse cx="960" cy="500" rx="600" ry="150" fill="url(#mistGradient)"/>
  <ellipse cx="960" cy="700" rx="400" ry="100" fill="url(#mistGradient)"/>
  
  <!-- Redwood trunks -->
  <rect x="200" y="400" width="120" height="680" fill="url(#treeGradient)"/>
  <rect x="400" y="300" width="100" height="780" fill="url(#treeGradient)"/>
  <rect x="600" y="350" width="140" height="730" fill="url(#treeGradient)"/>
  <rect x="800" y="250" width="110" height="830" fill="url(#treeGradient)"/>
  <rect x="1000" y="400" width="130" height="680" fill="url(#treeGradient)"/>
  <rect x="1200" y="320" width="95" height="760" fill="url(#treeGradient)"/>
  <rect x="1400" y="380" width="125" height="700" fill="url(#treeGradient)"/>
  <rect x="1600" y="300" width="105" height="780" fill="url(#treeGradient)"/>
  
  <!-- Tree crowns -->
  <circle cx="260" cy="420" r="80" fill="#451a03" opacity="0.8"/>
  <circle cx="450" cy="320" r="70" fill="#451a03" opacity="0.8"/>
  <circle cx="670" cy="370" r="90" fill="#451a03" opacity="0.8"/>
  <circle cx="855" cy="270" r="75" fill="#451a03" opacity="0.8"/>
  <circle cx="1065" cy="420" r="85" fill="#451a03" opacity="0.8"/>
  <circle cx="1247" cy="340" r="65" fill="#451a03" opacity="0.8"/>
  <circle cx="1462" cy="400" r="80" fill="#451a03" opacity="0.8"/>
  <circle cx="1652" cy="320" r="70" fill="#451a03" opacity="0.8"/>
  
  <!-- Forest floor -->
  <rect x="0" y="1000" width="1920" height="80" fill="#451a03" opacity="0.9"/>
  
  <!-- Sun rays through trees -->
  <path d="M 1600 100 Q 1400 200 1200 150" stroke="#fbbf24" stroke-width="3" fill="none" opacity="0.3"/>
  <path d="M 1600 150 Q 1400 250 1200 200" stroke="#fbbf24" stroke-width="2" fill="none" opacity="0.2"/>
  <path d="M 1600 200 Q 1400 300 1200 250" stroke="#fbbf24" stroke-width="2" fill="none" opacity="0.2"/>
  
  <!-- Additional mist details -->
  <ellipse cx="300" cy="400" rx="200" ry="80" fill="rgba(255,255,255,0.1)"/>
  <ellipse cx="800" cy="350" rx="180" ry="70" fill="rgba(255,255,255,0.1)"/>
  <ellipse cx="1300" cy="450" rx="160" ry="60" fill="rgba(255,255,255,0.1)"/>
</svg>
