<svg width="1920" height="1080" viewBox="0 0 1920 1080" xmlns="http://www.w3.org/2000/svg">
  <defs>
    <linearGradient id="skyGradient" x1="0%" y1="0%" x2="0%" y2="100%">
      <stop offset="0%" style="stop-color:#0ea5e9;stop-opacity:1" />
      <stop offset="50%" style="stop-color:#38bdf8;stop-opacity:1" />
      <stop offset="100%" style="stop-color:#7dd3fc;stop-opacity:1" />
    </linearGradient>
    <linearGradient id="mountainGradient" x1="0%" y1="0%" x2="0%" y2="100%">
      <stop offset="0%" style="stop-color:#6b7280;stop-opacity:1" />
      <stop offset="100%" style="stop-color:#374151;stop-opacity:1" />
    </linearGradient>
    <linearGradient id="valleyGradient" x1="0%" y1="0%" x2="0%" y2="100%">
      <stop offset="0%" style="stop-color:#059669;stop-opacity:1" />
      <stop offset="100%" style="stop-color:#047857;stop-opacity:1" />
    </linearGradient>
  </defs>
  
  <!-- Sky -->
  <rect width="100%" height="100%" fill="url(#skyGradient)"/>
  
  <!-- Distant mountains -->
  <polygon points="0,400 400,200 800,300 1200,150 1600,250 1920,180 1920,1080 0,1080" fill="url(#mountainGradient)" opacity="0.7"/>
  
  <!-- El Capitan -->
  <polygon points="800,200 1000,100 1200,200 1200,800 800,800" fill="url(#mountainGradient)"/>
  
  <!-- Half Dome -->
  <polygon points="1400,300 1500,200 1600,300 1600,700 1400,700" fill="url(#mountainGradient)" opacity="0.8"/>
  
  <!-- Valley floor -->
  <polygon points="0,800 1920,700 1920,1080 0,1080" fill="url(#valleyGradient)"/>
  
  <!-- Trees -->
  <circle cx="200" cy="750" r="30" fill="#166534" opacity="0.8"/>
  <circle cx="300" cy="720" r="25" fill="#166534" opacity="0.8"/>
  <circle cx="400" cy="750" r="35" fill="#166534" opacity="0.8"/>
  <circle cx="1600" cy="730" r="28" fill="#166534" opacity="0.8"/>
  <circle cx="1700" cy="750" r="32" fill="#166534" opacity="0.8"/>
  
  <!-- Clouds -->
  <ellipse cx="400" cy="150" rx="120" ry="50" fill="rgba(255,255,255,0.4)"/>
  <ellipse cx="800" cy="100" rx="100" ry="40" fill="rgba(255,255,255,0.3)"/>
  <ellipse cx="1400" cy="180" rx="140" ry="60" fill="rgba(255,255,255,0.35)"/>
  
  <!-- Sun -->
  <circle cx="1600" cy="150" r="60" fill="#fbbf24" opacity="0.9"/>
</svg>
