<svg xmlns="http://www.w3.org/2000/svg" viewBox="0 0 698.11 178.89"><g id="katman_2" data-name="katman 2"><g id="OBJECTS"><path id="Forest-5" d="M675.51,162.86c10.25,2.08,14.69-1.17,17.32-3-5.67,1.51-7.48-.63-7.48-.63s11.1-3.73,10.2-6.82-1.32,3.72-13.49,0S669.4,142,669.4,142s2-.55,2.14-2.06c5.22,2.34,11.8.95,14.1-.55-5.72.35-8.63-2-8.63-2s3.28-2.15,4.6-4.6c-2.51,1.31-10.87-1.07-17-10.59,6.9-.31,9.59-3.27,6.63-5.28,3.73.47,7.89-2.33,7.51-3.22-3.62,1-8.44.47-9.65-1s-4.11-4.91-4.11-4.91,2.41.9,3.87.32,1.53-1.43,2.49-1.14,1.62-.29,1-1.37a4.25,4.25,0,0,0-2.55-2.25,7.54,7.54,0,0,1-4.39-5.47c-.79-3.3-2-3.25-2-3.25s.23-16.11-3.42-16.46-1.36,8.8-4.57,12.36-3.66,4.44-6.78,4.56-2.1,3.37.82,3.93c-1.54.83-5.59.15-5.59.15a9,9,0,0,0,3,1.73,17.66,17.66,0,0,0,4.32.38s-.54,2.67,1.56,3.44c-.25,1.31-6,3.63-6,3.63s3.8-2.64,2.46-3.77-2.28,0-4.09.32-2.23.19-5.68-.44a19.56,19.56,0,0,1-8.11-3.24,30.11,30.11,0,0,1-6-5.45l2.86,0-2-2a56.52,56.52,0,0,0,8.08-.12c3-.39,5-1.62,4.48-3s-1.68-1.38-3.33-1.74-2.18-1.45-3.91-2.09-2.85.11-4.13-1.24-7.49-4.39-9.21-7.53c3.53.84,7.18-1,7-2.35s-1.43-.29-2.85-.43-1.9-1.85-1.9-1.85a9.75,9.75,0,0,0,5,.11c2.44-.71,3-3.15,2.8-3.59s-1-.32-2.72-.16-3.75-.61-4-2.14A6.08,6.08,0,0,0,618,63.6a2.11,2.11,0,0,0,1.67-1.82,3.08,3.08,0,0,0,3.07,1.14c2-.43,1.43-2.91.28-3.86a8.1,8.1,0,0,1-3.13-4.76c-.82-2.85-2.14-4-2.14-6s-1.75-9.78-3.56-9.62S613,42,612.91,42.83s-1.32,2.54-1.43,5.08-4.22,8.66-5.15,10.46-6.47,1.11-6.8,4.81,4.61.11,4.61,1.64-2.63,2.91-5.76,3.49-1.59,1.16-4,1.85a5,5,0,0,0-3.62,4A9.26,9.26,0,0,1,587,72.83a3.45,3.45,0,0,0,.77,1.34c-1.89.19-2.25-.31-2.25-.31s.66,2,4.19,2.11,4.66,1.43,7.46,1.14c-2.19,1-3.43,2.72-5.1,2.88s-5.65.63-7.62,2.64-2.66.79-2.63,2.3,1,.76,1.89,1.08A15.07,15.07,0,0,0,589,87.36c2.55.11,3.51-.63,3.51-.63s-.08,2.24,1.35,2.74a2.67,2.67,0,0,1-2.8,2.06c-1.15.06-2.11.69-2.06,1.67s1,1.56,2.91,1.56a40.25,40.25,0,0,0,5.54-.69,27.64,27.64,0,0,1-13.68,9.4l-1.28-.52a3.46,3.46,0,0,0,1.16-2.18c4.07-.32,6.7-1.9,6.29-3.29s-3.5.79-8.35-4-5.59-6.62-6.13-7.77a3.19,3.19,0,0,0-1.72-1.55,40.78,40.78,0,0,0,4.35-.75c1.9-.48,2.27-1.86,1.57-2.7a2,2,0,0,0-2-.75c-.74,0-1.7-1-2.65-1.07a1.27,1.27,0,0,1-1.27-1.47,1.18,1.18,0,0,0-.85-1.23c-.22,0,.74-1.56-.18-2.2s-1-.71-1-1,1.3-1.19,1-2.14.33-.91.14-1.9a8,8,0,0,1-.3-2.54c.06-1.2-.62-1.68-.58-2.73s.35-5.29-.72-5.43-1.48,1.35-1.54,2.85a19.07,19.07,0,0,1-2.06,5.81,4.86,4.86,0,0,0-.7,2.91c.15.6-.82,1.43-.71,2.18s.59.87.59,1.67-1.54,2-3.12,2.3-2.39-.32-3,.33-.22,2,1.07,2.6,2.1,1.21,3.13,1c-3,2.36-6,3.31-7.55,2.64s-1.13.13-2.26-.1-3.14-.74-3.14-.74,2.71,3,5,3.59c-1.58.93-5.55,1.05-5.55,1.05a15.75,15.75,0,0,1,3.66,1.39c.8.63,7.49,0,7.49,0a8.61,8.61,0,0,1-2.81,2.24c-2,1-3.7,1.91-5.1,2.49s-3.57,1.06-5.59,1.69-2.61-.53-3.32-.63-1,.37-1.67-.08-3.21-.32-4.47-1c.9,2.82,5.84,6.52,9.73,7.21a14.23,14.23,0,0,0,6.19,0,5.71,5.71,0,0,0,3.68,1.56c-5,4.26-7.58,5.72-12.14,6.2,1.48-2.42,2.17-3.29,2-3.65s-7.4,3.13-10.44,3.17a27,27,0,0,1-10.32-1.58c-3.7-1.43-9.87-2.58-11.35-4.92,7.19,2.42,11.22.6,14.18.6s6.54-2.18,6.54-2.18a37.4,37.4,0,0,0-6.29-.36c-1.93-3.33-6.41-4.08-11-6.26,9.29,3.76,13.86,1,13.86,1s-4.24-2.22-5.1-4.92c4.6.12,10.73-5.39,10.73-5.39s-16-2.31-24.59-9.71c7,.32,15.63-2.3,15.63-6.66s-.33-.63-7.4-1.58-9.71-2.38-9.71-2.38,6.5-.16,4.28-3.89c7.89,1.83,12.42.8,16.77-3-9,.95-13.89-1.58-13.89-1.58s5.34-.08,7.56-3c-3.62-.55-5.92-.87-11-1.26S512,48.09,512,48.09s5.4-1.72,5.12-3.78-3.73-.21-9-5.6c4.55,2.59,6.91,1.11,6.91,1.11a59.06,59.06,0,0,1-4.39-4.7c-1.48-1.91-3.07-3.39-3.61-5.76s.6-3.49-.5-4.71.06-4.17-1.48-4.17-.55,1.37-1.53,3.64-1.81,3.39-1.76,5.76-6.14,9.46-8.22,15.12a12.58,12.58,0,0,0,5.54-3.81s-1.95,4.66-2.77,6.32-2.3,2.33-3.15,3.91-1.62,1.43-3.13,2.06-1.75,1.3-1.81,2,.41,1.7,2.44,1.83c-3.15,1.56-8.14,3.7-9.81,4.6s-.52,2.19,1,2.59a13.33,13.33,0,0,0,6.6.37,17.23,17.23,0,0,0,4.25-1.48,9.16,9.16,0,0,0-1.45,2.48c-.52,1.4-14.34,7.85-19.93,8.46,4.55,1.9,19.24-.56,23.11-3.2-5.29,8.77-10.47,9.48-14.58,11s-6.91.71-7.82,1.82-1.15,6.43,11.6,6.5c-1.89,2.86-5.84,2-6.91,3.57s-.25,4.12,3.37,4.52,2,2.14,2,2.14c-1.17,1.73-2.36,3.76-3.32,4.16s-3.23-1.22-4.6-1.58-4.34-.67-5.9-3c3.27.07,6.16-1.61,5.64-2.93s-4.08-1.29-6.08-3-4-2.71-5.08-5c2.59.75,5.56-1.47,4.71-2.76s-3.53-.39-6.83-3.54c4.08.76,6.6-1.75,6.12-2.78s-6-.5-8.79-5.29c2,.7,5.17.25,5.2-.45s-2.65-1.09-4.5-4.24-.89-5.08-2.3-6.48c-.35-.86-.47-11.18-.94-11.16s-1.49,5-1.39,6.58.5,2.93-.19,4.2a6,6,0,0,0-.67,3.38c0,1-1.11,1.6-1.31,2.36s-2.62,1.29-2.57,1.84,1.68.88,2.17,1.16-3.36,2.51-5.81,2.7-1.73.93-2.49.88-1-.43-1.09-.24A1.19,1.19,0,0,0,443.38,77c1.48-.07,1.53,1,2.72,1.17a12.6,12.6,0,0,0,2.42,0s-1,1.48-1.88,1.72-2.47,0-2.72.76.92,1.77,2.4,1.81a8.08,8.08,0,0,0,2.72-.4s-2.57,2.24-4.52,2.41-4.85.07-5.37.66-.12,1.46,2.2,2.1a5.54,5.54,0,0,1,1.94.85,6.13,6.13,0,0,1-1.19-.28c-1.81-.63-4.56-1.74-6.37-1.58s-4.07-2.34-5.84-2.34a6.59,6.59,0,0,0-2.29.58A25.43,25.43,0,0,1,425.48,83s6.41-2.54,5.3-7a23.78,23.78,0,0,1-9.89-2.39,6.29,6.29,0,0,0,1.43.24c1.54.06,1.87-.63,3.37-.39a18.24,18.24,0,0,0,5.16.18c2.77-.18,5.18-3.48,5.18-3.48a10.85,10.85,0,0,1-5,.66,16.74,16.74,0,0,1-4.85-1.14s4.3.08,6-2.11c-2.58.6-10.5-.85-12-1.67a6.34,6.34,0,0,1-1.67-2.18,3.22,3.22,0,0,0-.28-1.17c-.07-.15-.31-.23-.65-.28a7.58,7.58,0,0,0-3.82-3.21,10.86,10.86,0,0,1-2.16-1c1.17-.39,2.09-1.06,2.09-2a7.26,7.26,0,0,0,4-1.35c2.8-2.25,2.53-4.92,1.79-5s-.83.84-2.36.66-2.52-2.38-2.52-2.38l2,.16s-.74-2-4.83-2.27a12.49,12.49,0,0,1-1.36-.16,1.1,1.1,0,0,0,0-.18,11.47,11.47,0,0,0-1.41-3.15,5.53,5.53,0,0,1,1-.32,17.51,17.51,0,0,0,6.11-2.93c2.08-1.83,1.65-5.08.93-5.08s-.93,1.06-2,1a4,4,0,0,1-3.09-1.5c-.58-1-2.36-.51-3.35,0s-1.56,1.08-2.08.6a5.14,5.14,0,0,1-1.21-3.06c-.05-1.24,1.62-1.53,2.55-3.6s.69-6.87.77-8.21,1.51-4,.77-5.84-3.62-5.55-4-7.19S404.21,0,404.21,0s-.69,5.55-.74,8.19a54.82,54.82,0,0,1-.88,9.25c-.49,1.64-.06,3.59-.93,5.6s-2,4.05-1.62,5.95a3.21,3.21,0,0,0,1.52,2.38s.33.83-.16,1.3-7.49,1.57-9.61.41a7.75,7.75,0,0,1-3.43-3.62,10.9,10.9,0,0,0,.91,5,11.81,11.81,0,0,0,3.07,3.91,1.92,1.92,0,0,0,1,2.33c1.54.87,5.46,1.11,5.46,1.11a23.76,23.76,0,0,1-1.5,3.11c-.55.25-1,.53-1,.94,0,.12,0,.24,0,.37a1,1,0,0,1-.16.12c-1.23.8-3.29-.24-5,1.09s-3.62,1.11-4.93,2.51-.85,2.27-.47,2.27,1.59-.79,2.47-.34,1.29,1.26,2.55,1.79a9.13,9.13,0,0,0,1.18.4,1.87,1.87,0,0,0-.44.85,1.35,1.35,0,0,0,.27.92,7.57,7.57,0,0,1-3.26,1.85,8.08,8.08,0,0,0,5.34-.71c1.23.32,1.4,1,2.45,1.11s1.14-1.1,2-1.1h.11a5.11,5.11,0,0,1-.6,1.65,2.24,2.24,0,0,0-.84,1,1.23,1.23,0,0,1-.32.52s0,0-.05.05c-.71.66-2.2.89-3.22,1.2-1.26.38-3.06.09-3.41.74s-3.08,2.12-3.18,2.94a18.43,18.43,0,0,1-4.95,1c-3.72,0-4-.19-4.85.68s.29,1.67,2.59,2,2.35,1.07,4.36,1.23a8.18,8.18,0,0,0,2.75-.08s-3.58,1.91-4.4,3.51c-4.8-.12-14.24-1.55-17.23-5.39,1.67,3.33,4.05,5.36,4.6,6.72s2.89,1,4.45,2.22,4.34,3.86,5.6,3.5c-.89.93-6.93,2.08-10,.57,1.44,2,5.3,2.65,6.34,3.37a11.54,11.54,0,0,0,6.79.82,18.11,18.11,0,0,1,3.57-.53,30.5,30.5,0,0,1-11.42,4.12c-4.81.48-7.28-.12-7.73.91s.49,3.25,3.7,3.81a23.63,23.63,0,0,0,4.78.18c-3.37,1.43-6.81,2.56-8.52,2.38.95,1.53,4.33,3.11,7.22,3.57-1.78.38-2.81.49-3.07,1.8s2.75,2.18,4.65,2,6.2-2.74,6.2-2.74-.13.39-.29,1a7,7,0,0,1-2.39,1,7.29,7.29,0,0,0,2,.75,6,6,0,0,0,0,2.92,50.62,50.62,0,0,0-5.7,5.22,8.06,8.06,0,0,0-3,1.34c-1.59,1.57-6.49,3.36-8.27,3.36-.72,0-2,.13-3.32.24-2.94-.87-2.69-2.35-2.69-2.35s.74-1.66,3.83-1.35,8.71-4,9.17-5.82-1.24-1.83-1.24-1.83.66-3.68-3.58-4.08-5.05-1.71-8.09-3.85-3.38-1.78-3.38-1.78,1.73-2.5,3-2.81,4-.12,6-2.42,3.16-3.17,3.9-3.45.7-2.1-2.05-4.2-2.77-1.94-4-3.56a8.14,8.14,0,0,0-2.72-2.29s.85-2,.47-2.89-2-1.87-2-3.06a10.11,10.11,0,0,0-1.92-6.32,6.27,6.27,0,0,1-1.62-4.86c.08-1,0-3.62-1.29-4.7s-.16-3.6-1.26-3.46-.41,2.67-.55,3.64-1,.56-1.12,3.31.49,4.88-.58,6.42-3.29,3.8-4,6.66,1.29,3.88,1.29,3.88.88.29.77,2,2.05,3.51,2.57,3.48c-.41,1.7-1.26,2.7-3.09,2.7s-3.21-1.29-5.27.5-4.55,1.43-4.93,3.41,0,3.07,2.49,3.33a41,41,0,0,0,7.38-.29c2.44-.19,2.68-.13,2.82.71s.95,3.91-1.27,5-9.17,1.83-15,1.91a49.75,49.75,0,0,1-10.4-1s8.39,4.87,12,5.47c-6.12,1.15-4.68,5.39-3.62,5.9s4.53-.79,6.13-.51,5,2.18,6.37,2.93a21.13,21.13,0,0,0,4.77,1.27,3.76,3.76,0,0,1-1.15,1.66c-.78.56-3.49-.55-5.22,1.15a5.81,5.81,0,0,1-4.32,2,8,8,0,0,0-5.6,1.72c-2,1.38-5.71,1-8.1,1a2.52,2.52,0,0,0-1.16-1.45c3.73.47,7.9-2.33,7.51-3.23-3.62,1-8.44.48-9.65-1l-4.11-4.91s2.41.89,3.87.31S322,108,323,108.32s1.62-.29,1-1.38a4.23,4.23,0,0,0-2.55-2.24,7.54,7.54,0,0,1-4.39-5.47c-.79-3.31-2-3.25-2-3.25s.24-16.11-3.42-16.47-1.36,8.8-4.57,12.37-3.66,4.44-6.78,4.56-2.1,3.37.82,3.92c-1.54.84-5.59.16-5.59.16a9,9,0,0,0,3,1.73,17.45,17.45,0,0,0,4.32.37s-.54,2.68,1.56,3.45c-.25,1.31-6,3.63-6,3.63s3.8-2.64,2.47-3.77-2.29,0-4.1.32-2.23.19-5.68-.44a19.57,19.57,0,0,1-8.11-3.25,29.79,29.79,0,0,1-6-5.45l2.86,0-2-2a56.52,56.52,0,0,0,8.08-.12c3-.39,5-1.62,4.48-3.05s-1.68-1.39-3.33-1.74-2.18-1.46-3.9-2.09-2.85.1-4.14-1.24-7.49-4.39-9.21-7.54c3.53.85,7.18-1,7-2.35s-1.43-.29-2.85-.42-1.89-1.85-1.89-1.85a9.71,9.71,0,0,0,5,.11c2.44-.72,3-3.15,2.8-3.6s-1-.31-2.72-.16-3.75-.6-4-2.14a6.09,6.09,0,0,0-3.56-4,2.12,2.12,0,0,0,1.67-1.82,3.06,3.06,0,0,0,3.07,1.13c2-.42,1.43-2.9.28-3.85a8.22,8.22,0,0,1-3.13-4.76c-.82-2.86-2.14-4-2.14-6s-1.75-9.78-3.56-9.62-1.2,3.33-1.26,4.12-1.31,2.54-1.42,5.07-4.23,8.67-5.16,10.47-6.47,1.11-6.79,4.81,4.6.1,4.6,1.64S253.11,69,250,69.6s-1.59,1.17-4,1.85a5,5,0,0,0-3.62,4,9.16,9.16,0,0,1-3.73-1.3,3.46,3.46,0,0,0,.77,1.35c-1.89.19-2.25-.32-2.25-.32s.66,2,4.2,2.12,4.65,1.42,7.45,1.13c-2.19.95-3.43,2.73-5.1,2.88s-5.64.64-7.62,2.65-2.66.79-2.63,2.3,1,.76,1.89,1.08a15.14,15.14,0,0,0,5.27,1.35c2.54.1,3.5-.64,3.5-.64s-.08,2.25,1.35,2.75a2.67,2.67,0,0,1-2.8,2.06c-1.15,0-2.11.69-2.05,1.67s.95,1.56,2.9,1.56a40.25,40.25,0,0,0,5.54-.69,27.59,27.59,0,0,1-13.68,9.39l-1.27-.51a3.47,3.47,0,0,0,1.15-2.18c4.07-.32,6.7-1.91,6.29-3.29s-3.5.79-8.35-4S227.55,88.19,227,87a3.24,3.24,0,0,0-1.73-1.54,40.77,40.77,0,0,0,4.36-.75c1.89-.48,2.26-1.87,1.56-2.7a2,2,0,0,0-2-.75c-.74,0-1.71-1-2.66-1.07a1.28,1.28,0,0,1-1.27-1.47,1.19,1.19,0,0,0-.84-1.23c-.23,0,.74-1.56-.19-2.2s-1-.71-1-1,1.3-1.19,1-2.14.33-.91.15-1.9a8,8,0,0,1-.31-2.54c.06-1.21-.62-1.68-.58-2.73s.35-5.3-.72-5.43-1.48,1.34-1.54,2.85a19.33,19.33,0,0,1-2,5.81,4.72,4.72,0,0,0-.7,2.91c.14.59-.83,1.43-.72,2.18s.59.87.59,1.66-1.54,2-3.12,2.3-2.39-.31-3,.34-.23,2,1.07,2.6,2.09,1.21,3.12,1.05c-3,2.36-6,3.31-7.54,2.63s-1.13.14-2.27-.1-3.14-.73-3.14-.73,2.71,3,5,3.59c-1.59.93-5.56,1-5.56,1a15.75,15.75,0,0,1,3.66,1.39c.81.63,7.49,0,7.49,0a8.61,8.61,0,0,1-2.81,2.24c-2,1-3.7,1.9-5.1,2.49s-3.56,1-5.59,1.69-2.61-.53-3.32-.64-1,.37-1.67-.08-3.21-.31-4.47-1c.91,2.83,5.84,6.53,9.73,7.22a14.49,14.49,0,0,0,6.2,0,5.67,5.67,0,0,0,3.67,1.56c-4.95,4.25-7.58,5.72-12.14,6.2,1.48-2.42,2.18-3.29,2-3.65s-7.4,3.13-10.44,3.17a27.17,27.17,0,0,1-10.32-1.58c-3.7-1.43-9.87-2.58-11.35-4.92,7.2,2.42,11.22.59,14.18.59s6.54-2.18,6.54-2.18a37.81,37.81,0,0,0-6.29-.35c-1.93-3.33-6.41-4.08-11-6.26,9.29,3.76,13.86,1,13.86,1s-4.24-2.22-5.1-4.92c4.6.12,10.73-5.39,10.73-5.39s-16-2.31-24.59-9.71c7,.32,15.63-2.3,15.63-6.66s-.33-.63-7.4-1.59-9.71-2.37-9.71-2.37,6.5-.16,4.28-3.89c7.89,1.82,12.42.79,16.77-3-9,1-13.89-1.59-13.89-1.59s5.34-.08,7.56-3c-3.61-.55-5.92-.87-11-1.27s-5.42-1.74-5.42-1.74,5.4-1.72,5.12-3.78-3.72-.22-9-5.6c4.55,2.59,6.91,1.11,6.91,1.11a58,58,0,0,1-4.39-4.71c-1.48-1.9-3.07-3.38-3.61-5.76s.6-3.48-.5-4.7.06-4.18-1.48-4.18-.54,1.38-1.53,3.65-1.81,3.38-1.76,5.76-6.14,9.46-8.22,15.12a12.5,12.5,0,0,0,5.54-3.81s-2,4.65-2.77,6.32-2.3,2.32-3.15,3.91-1.62,1.43-3.13,2.06-1.75,1.29-1.81,2,.42,1.69,2.44,1.82c-3.15,1.56-8.14,3.7-9.81,4.6s-.52,2.2,1,2.59a13.12,13.12,0,0,0,6.6.37,16.73,16.73,0,0,0,4.25-1.48,9.32,9.32,0,0,0-1.45,2.49c-.52,1.4-14.34,7.84-19.93,8.45,4.55,1.91,19.24-.55,23.11-3.19-5.29,8.77-10.47,9.48-14.58,11s-6.91.71-7.81,1.82-1.16,6.42,11.59,6.5c-1.89,2.86-5.84,2-6.91,3.57s-.24,4.12,3.37,4.52,2,2.14,2,2.14c-1.17,1.72-2.36,3.76-3.32,4.15s-3.23-1.21-4.6-1.57-4.34-.68-5.9-3c3.27.08,6.16-1.6,5.64-2.93s-4.08-1.28-6.08-3-4-2.72-5.08-5c2.6.76,5.56-1.46,4.71-2.75s-3.52-.39-6.82-3.54c4.07.75,6.6-1.75,6.11-2.79s-6-.5-8.78-5.29c2,.71,5.16.25,5.19-.44s-2.65-1.1-4.5-4.24-.89-5.08-2.3-6.48c-.35-.86-.47-11.18-.94-11.16s-1.48,5-1.39,6.58.5,2.93-.19,4.19a6,6,0,0,0-.67,3.39c0,1-1.11,1.6-1.31,2.36s-2.62,1.29-2.57,1.83,1.68.89,2.17,1.17S99.7,76,97.25,76.14s-1.73.93-2.49.89-1-.43-1.09-.24A1.2,1.2,0,0,0,95,78.34c1.48-.07,1.53,1,2.72,1.17a13.56,13.56,0,0,0,2.42,0s-1,1.48-1.88,1.72-2.47,0-2.72.76.92,1.76,2.4,1.81a8.08,8.08,0,0,0,2.72-.4s-2.57,2.24-4.52,2.4-4.85.08-5.37.67-.12,1.46,2.2,2.1S95.35,90,95.35,90s-2.42.21-2.6.67.38,1.52,2.53,1.57a5.77,5.77,0,0,0,3.09-.59c-.18.12-2.66,1.66-4.16,2.73s-4.79.93-5.68,1.63-2.62.5-3.44.57-2,1.14-.37,2.38,5.66,1.36,5.66,1.36-2.17,2.38.5,3.26c-.47,1.84-5.89,4.08-6.58,4.2s-2.18,0-3,.43-1.13,2,1.21,2.76,3.94,2.82,7.25,2.51c-1.49,1.26-6.8,3.43-6.8,3.43s-5.29-3-7.76-6.53a66.31,66.31,0,0,0-6.33-8,32.84,32.84,0,0,0,12.56,1c2.72-.38,4.4-.92,4.4-1.39s-5.74-1.33-6.58-1.71c2.15-1.14,1.81-2.6,1.81-2.6s-4.16,1.1-8.46-2.76S63.17,85.19,61.43,80a40.3,40.3,0,0,0,14.35,9.87c2.75,1.07,8.61,1.91,12.31.11a37.91,37.91,0,0,1-11-5.65s6.42-2.54,5.3-7c-4.45,0-9.71-1.68-12.83-4.25S66,70.64,66,70.64s5.49-3.33,3.93-6.76c-.33-.68-3.64,0-6.11-1.49s-3-1.43-4-2.71c2.2.47,6.06-.55,5.54-2.6s-3.61-2.29-5.09-4.46c.56-.86.59-1.48.22-2,1.21-.53,1.8-2.48,1.6-3.65a16.34,16.34,0,0,0-3.23-5.74c-1.54-1.77-2-11.75-2.75-11.71s0,2.41-.76,3.7A11.69,11.69,0,0,0,54.19,38a8.21,8.21,0,0,1-1.63,4.55c-1,1.05-2.06,2-2.2,2.75s-2.5,1-2.53,2a3.8,3.8,0,0,0,1.07,2.5,3.24,3.24,0,0,0,1.73.5,10.19,10.19,0,0,1-4,3.1c-2.49,1-3.56,2.22-3.66,3s.65,1.71,2.11,2,1.58,1.07,2.69,1.17,1.14-1.1,1.95-1.1,1.41.07,1.44.33S48.75,59.89,48.43,61s-2.33,1.38-3.59,1.76-3.06.1-3.41.74-3.11,2.15-3.19,3,2.72.78,3.39,1.43,4.72,1.74,5.41,1.76.7.22.7.34-2.11-.39-3.17.78-.91,2.17-3,1.84-2.52,1.69-5.66,2.09S20.08,74,16.52,69.39c1.67,3.32,4.05,5.36,4.6,6.72s2.9,1,4.45,2.22,4.34,3.86,5.6,3.5c-.89.93-6.93,2.07-10,.57,1.45,2,5.3,2.65,6.34,3.36a11.4,11.4,0,0,0,6.79.82,27.08,27.08,0,0,1,5.6-.6,1.37,1.37,0,0,0,1.44.43c-.4.89-3.67,2.28-5.56,4.07s-13.46,7.37-17.09,7c1,1.68,5,3.44,8,3.69a60.54,60.54,0,0,0,8.09-.22s.11,2.22-3.82,3.11c3.07,1.79,10,1.11,10,1.11s-2.3.57-5.23,3.79-9.86,3.75-11.46,5.33-6.49,3.36-8.27,3.36-6.82.78-7.93.1-3,.65-.15,3.72,4.19,3.51,7,3.51,9.23-.36,9.23-.36-8.86,5-9.12,5.79.63,2.72,4.27,2.47,11.34-2.15,13.9-4.54A2.08,2.08,0,0,0,35.33,131c1,0,3.93-.93,7-3.68-1.56,2.54-8.11,10.25-14.29,13.4s-13,3.86-13.5,5.29-.25,3.57,4.4,3.86,8,.52,8,.52-7.71,8.15-12.71,10.92-10.73,3.29-12.51,2.86-2.47,1.71-.29,2.91,3.71,1.38,4.4,1.86,3.9,0,6,.57,9.1-1.43,9.1-1.43a1.71,1.71,0,0,0,.3,2.09c-4.16,2.44-4.65,5.58-6.53,6.34-1,.42-3.86,1.31-6.54,2.43H689c3.87-2.21,9.43-5.82,9.15-8.11C697.66,167.3,694.37,176.81,675.51,162.86ZM72.19,133.06a6.6,6.6,0,0,1-1.93-3.36l5,2.58S73.6,132.63,72.19,133.06Zm7.19-6.36,4.15.28-1.85,1.93Zm9,19.8a13.93,13.93,0,0,1-5.56-4.21C86.87,143.79,93,143,93,143Zm96.27-25.38-.89-2.29,2.23-2.36,2.89,2.86Zm54.74,2.79-2.67-2.57h4.45Zm3.93-7L239.36,115h6.52Zm1.18-7-5.11-2s7.86-.14,10.23-1.28C248.33,108,244.47,109.89,244.47,109.89Zm49.35,17.41a2.53,2.53,0,0,0-.13-.22,4.77,4.77,0,0,1-.53-1.16c.7.28,1.2.44,1.2.44A7.18,7.18,0,0,0,293.82,127.3Zm2.72-9c-1,.38-6.53,1.19-7.77,3.53-.61,1.17.79,2.3,2.35,3.14v.33a11.18,11.18,0,0,1-1,3.61l-4.63-3.51H287l-6.62-6,3.86,1.29-5-5.72s6.08-.09,7.86,1.15.3-3.63-1-4.63a23.9,23.9,0,0,0,8.51,0s-2.82,2.24-4.6,3.58-1.09,2.48,3.41,1.9a37.89,37.89,0,0,0,5.29-.85S297.53,117.93,296.54,118.31Zm27.28,30-.16-.16.54.14Zm11.34-11a49.17,49.17,0,0,1-5.06.22,12.7,12.7,0,0,0,3.11-3.49c-2.51,1.31-10.87-1.07-16.95-10.58a16.68,16.68,0,0,0,5.25-1,2.56,2.56,0,0,0,1.13.66c2,.69,17.4,2.49,17.4,2.49a24.81,24.81,0,0,0-4.59,4c-1.81,2.18-.45,3.92,1.65,3.84s10.81-1.46,11.1-.83S341.52,136.57,335.16,137.36Zm97.54-30.91c-.69.12-2.18,0-3,.43a1.32,1.32,0,0,0-.53.67c-3.55-2.32-4.41-3.91-4.41-3.91s3.62.5,4.48-.37c.23-.23.1-.65-.21-1.13l.8-.1c2.71-.38,4.4-.92,4.4-1.39,0-.11-.35-.25-.89-.4a15.21,15.21,0,0,0,5-.76c-.48.75-1,2.14.86,2.77C438.8,104.09,433.39,106.33,432.7,106.45Zm9.91-13.39c-1.17.84-3.29.94-4.65,1.23-.49-.24-.79-.41-.79-.41a22,22,0,0,0,9.21-3.37,2.62,2.62,0,0,0,.39-.18C446.59,90.44,444.11,92,442.61,93.06ZM533,119.82l-.89-2.28,2.22-2.36,2.9,2.86Zm54.73,2.79L585.08,120h4.45Zm3.93-7-3.93-1.93h6.53Zm1.19-7-5.12-2s7.87-.15,10.24-1.29C596.73,106.74,592.87,108.6,592.87,108.6ZM644.94,117c-1,.38-6.53,1.19-7.77,3.53s5.59,4.53,5.59,4.53A14.59,14.59,0,0,0,641,129.5l-7.12-5.39h1.53l-6.62-6,3.85,1.28-5-5.72s6.08-.09,7.86,1.15.3-3.62-1-4.63a23.9,23.9,0,0,0,8.51,0s-2.82,2.24-4.6,3.58-1.09,2.48,3.41,1.91a38.29,38.29,0,0,0,5.29-.86S645.92,116.63,644.94,117Z"/></g></g></svg>