<svg xmlns="http://www.w3.org/2000/svg" viewBox="0 0 701.07 212.35"><g id="katman_2" data-name="katman 2"><g id="OBJECTS"><path id="Forest-6" d="M18.25,207A26.56,26.56,0,0,1,0,202.45c.11.2,3.44,5.68,15.47,9.9H690.24a5.29,5.29,0,0,1-1-.75c-1-1.15-2.82-5.27-4.64-9.23,9.5,6.93,16.48,2.22,16.48,2.22s-4.68-.07-6.91-1.82c3.23.56,3.34-3.37,4.72-3.89s1.48-1.38.25-2.31-2.11.16-2.85.49-1.11.67-2.6-2-4.56-4.42-6.38-5.6-2.71-4.38-4.34-6.57-2.78-1.85-3.08-1.93-.45-.48-.11-1.37c3.34.81,5.79-2,7.79-3.94s1.93-6.23,1.93-6.23-2.3,3.34-4.16,3.34c-.29-6.82-3.63-9.87-4.89-11.95s-.23-9.05-.6-12.76-2.59-5.41-2.59-8.83.52-6.68-1.64-6.83-1.33,11-1.63,17.22c-2.82,1.85-1.48,13.73-1.78,16.92s-5,7.86-5,7.86l4.67-1.93c-.44,3,1.34,7,1.34,7s-2.52,1.93-3,4.3c-1.78-.74-14.32-3.41-20.48-4.08s-8.16-4.08-8.16-4.08,15.88,3.34,22.11.3c0,0-9.42-2.16-9.27-2.38a12.35,12.35,0,0,1,5-1.63c2.15-.15,4.52.89,5.79-.52s5.41-6,3.26-7.64-4.75,1.93-7.27,1-2.75-1.63-10.17-3.93c9.58.67,12.17-5,10.46-6.46s-4.22.82-7,.23-5.5.59-11.8-1.27-11.06-8.53-11.06-8.53,9.2,1.71,11.13,1.71,1.78-1.11,7.13-1.71,13.53-8.8,13.79-9.06c-.16.08-3.74,2.1-11.51,1.94,5.34-3.73,8.12-8.46,9.35-10.13A28.26,28.26,0,0,0,664,122.8s-10.8,7.07-13.86,7.79-12.74-1-15.59-1-5.73-.72-9.74-4c7.41-.5,9-2,9-3.06s-1.61-2.45-1.61-2.45a44.56,44.56,0,0,0,11.46-4.68c5.33-3.21,7-10,7.06-10.34a17.29,17.29,0,0,1-3.77,4.11c-1.79,1.11-7.29,2.45-9.41,2.62a6.71,6.71,0,0,1-5.73-1.79c-2.23-1.83-5.4-2.06-6.57-2.39s-2.84-2.72-1.11-3.56,1.94,1.89,8.12.28,8-7.68,11.08-12.91c-.78.67-3.4,3.17-5.46,3.72a68.12,68.12,0,0,1-8.4.9,6.71,6.71,0,0,0-3.62-2.23c2.45-.67,5.51-3.9,8.07-7.62A19.69,19.69,0,0,1,620,89.74c-.11-2.34-1.39-2.34-1.79-2.73s-.11-3,1.34-6.34-1.12-5.68-.67-8.07,0-6.34-.5-8.74-3.34-2.89-3.67-5,.44-4.62-1.06-4.79-2.06,5.24-1.39,7.24.72,7.68-.28,11-.78,5.84.22,8,.39,4.72.39,5.84-1.16,2.45-2.44,3.06-5.8,2.17-5.29,5.18,2.11,2.83,8.79,5.12c-.5,1.39-3.06,2.39-7.51,3.56a18.35,18.35,0,0,0-7.63,4.45s-3.61-1.17-3.83,1.34,2.28,3,6.28,3a48.7,48.7,0,0,1,6.29.33,9.48,9.48,0,0,1-3.23,3,13.78,13.78,0,0,1-5.73,2.18c-1.78.33-3.23,4.06-.17,5.17s5.18-.94,9.46-.39,4.29-2.06,4.79-1.67.83,3.45-.94,5.74-7.41,5.84-9,6-6.9,4.24-12.24,9.13c7.13,1.23,9-2.39,12-1.33,2.85,1,8.06-1,8.58-1.21-.67.35-10.08,5.29-9.75,7.5s10.41,1.28,10.41,1.28a102.15,102.15,0,0,1-9.85,8,19,19,0,0,1-8.91,2.78s5.45-3.84,6.45-4.62a2.22,2.22,0,0,0-.55-3.67c-1.67-.61-8.41-.45-12-1.22a31.24,31.24,0,0,1-7.95-3.57s3-1.78,3.23-2.61.05-4.79-1.51-5.57-2.62.62-4.9.45-7.73-2.62-13.52-7.63c2.39,1.28,14.25,2.67,18.08,1.62s6.8-.95,11.36-3.4c-2.84,1-8.68,1.06-12.64-1.39,6.29-2.73,6.29-5.9,5.57-7s-2.23-.61-3.9-.56-2.83.61-6.34-.61a66.23,66.23,0,0,0-7.4-2s8.35-1.94,11.07-3.83,5.35-4.12,4.34-7.07c0,0,4.68-.89,7.18-3a191,191,0,0,1-22.7,0c-6.24-.56-9.13-.44-10.74-1.84a24.22,24.22,0,0,0-4.23-2.67s-.45-2.78.5-3.17,4.79,1.17,9.46,1.34a40.48,40.48,0,0,0,10.46-1.51,34.42,34.42,0,0,1-6.84-1.17,14,14,0,0,1-4.62-3.39,24.53,24.53,0,0,0,4.9,1.39c2.33.33,4.39-1.28,7.73-3.17S577,84,575.51,81.28c1.62-1.22,3.28-5.51,3.28-5.51S574.9,79.89,572,80.5s-5.17,1-7.45.28-4.13-.28-6.35-.33-4.9-1.56-8.46-5.79c1.5,1.5,5.4.94,7.45-.11s6.52-4.62,7.19-6.12-.67-2.84-1.66-3.17-1.35.49-3.35,1.44-3.4,1.12-3.62.56.89-1.23,2.62-1.67,3.17-2.39,4.06-5a7.58,7.58,0,0,0-1.06-6.18c-.56-.72-1.89-1.17-3.06.5s-3.4,3.46-4.9,3.79-3.22-.39-7.35-1.51c2.34-.44,5.13-3.78,5.13-3.78s-6.24.67-6.62.5-1.34-2.34-.73-3,3.12-6,4.17-7.41,1.06-3.34.73-3.67-3.23,4.62-3.56,4.34-.56-4-.61-6.62a26.23,26.23,0,0,0-1.34-7.07c-.67-2.28-.78-5.95-.95-9.41a80.3,80.3,0,0,0-1.45-9.46S539.67,22.07,539,25s-.5,6.46-.5,10.3-1.45,7.51-1.73,10.85a23.76,23.76,0,0,0,1.14,7.68s-5,2.23-7.54,2.42-7.62-1-7.62-1,2.92,2.93,6.18,3.46c-3.06,1.53-7.63.44-7.63.44s.39,2.23,5,4.4,5.9.89,6.62,1.73,8.85,7.23,8.57,8.46-4.23,4.5-6.4,5a33.29,33.29,0,0,1-15.92-1.39c3.51,5.18,11.31,5.62,11.31,5.62s-7.74.84-10.58-.33a11.62,11.62,0,0,0-5.07-1s2.18,4.51,5,5.12a27.64,27.64,0,0,1,6.56,2.06c3.18,1.34,8.91.22,8.91.22s-9,7.35-16,8.63c1.72,2.78,4.78,3.17,10.63,2.67A51.54,51.54,0,0,0,542.62,97a22.4,22.4,0,0,1-5.84,6.63c-3.95,3-5.46,2.56-7.24,2.33a6.35,6.35,0,0,0-5.39,1.45,13,13,0,0,1-6.91,3c-2.78.33-4.62.22-6.23-1.06s-4.5-1.28-4.5-1.28l.05-.78s.95.5,4.79-.17a6,6,0,0,0,4.66-4.44,5.11,5.11,0,0,1-2.83,1.28c0-2.34-2.56-3.18-4.34-6.18s-.22-3.18-1.95-6.24-1.17-4.17-1.28-7.79-1.05-4.06-1.39-6.29a71.43,71.43,0,0,1,0-8.57s-3.17,6.85-3.17,9.63.22,8.46-.39,10.69S497,95.81,497,95.81a32,32,0,0,1-.28-5.9c-2.68,4.15-.64,9.37-.56,9.57a14.35,14.35,0,0,1-2.67-5,10.89,10.89,0,0,0,5.51,10.9,21.3,21.3,0,0,1-3.67,2.56,3.47,3.47,0,0,0-1.95,3.4s-1.06-1.22-3.06-3.34c1.14,5.15,2.84,7.35,8.68,9-1.56,0-3.73,2.5-6.12,2.5s-6.57-2.11-7.4-2.39-2.67-.39-1.56,2.34,4.35,5,4.55,5.17a24,24,0,0,0-4.11-1.22c3.51,5.07,11.64,7.63,12.13,8.52s.56,5.17-.55,7.34S484.13,148,481.85,148s-9-4.45-9-4.45,3.95-.11,9.51-.72,8.08-3.82,8.08-3.82a18.73,18.73,0,0,1-4.31.07c4-2.45,5.79-5.19,4.9-5.53s-8.16.48-11.95,0-8.68-4-8.68-4,7.12-3.9,7.42-5.86c2-.16,3.52-3,3.26-3.83a1.87,1.87,0,0,0-2.85-.59c-1.08.89-2.19.55-3.75.41s-3.64-1.89-3.45-2.38,2.08.08,3.27-.22,1.07-1.78,2.59-1.78a5.1,5.1,0,0,0,3.82-1.48c1,.33,2.42.59,2.93-.6a2.8,2.8,0,0,0-.25-2.41s2.22-2.15,2-4.05a7,7,0,0,0,4.05-4,10.87,10.87,0,0,1-6.9,2.6c-2.68,0-4.38.63-6,.63s-6.75.7-6.56-.07,2-2.12,4.49-2.75,4.51-2,4.88-3.11-.71-2.81-1.73-2.31a4.36,4.36,0,0,1-2.63.5c-.86-.09-1.77-1.46-3.23-1.32s-2.49-.35-2.38-.83.5-.27,2.79-1.74a6.82,6.82,0,0,0,2.67-4.43,4.69,4.69,0,0,1-2.06,1.26c-.35-.71-2-.65-2.75-.65s-2.3-.69-2.37-1.26,1.24-.91,2.15-1.55,2.39-1.75,2.09-2.83-1.92-1.26-2.46-1.6-1.91-1.24-1.91-2.1.41-1.93.48-3.74a12,12,0,0,0-.63-5.31c-.71-1.63-.37-6-.37-6a13.1,13.1,0,0,0-1,5.19c.07,2.83-.48,9.54-1.45,10.24s-2.74,1.71-2.93,3.57,2.52,3,2.52,3-3.22.41-4.12,2.16,1.75,5,1.75,5-1.3,0-2.93-.11a13.67,13.67,0,0,1-4-1.3s-.3,1.23,2.45,2.6a2.24,2.24,0,0,0-2.08,1.76,21.46,21.46,0,0,1-4.39-3.9c2,7.63,12,10,12,10a5.11,5.11,0,0,1-1.93,1.07,24.48,24.48,0,0,1-5.12.19c-2.37,0-3.93,1.89-3.9,3s1.12,3.15,4,2.71c-.14,1,1.89,1.67,4.49,3a29.39,29.39,0,0,0-9.2,1c-1.63.49-5-.26-5-.26l1.22,5.27s2.12.15,2.72,1.3,2.89,1.11,2.89,1.11a6.63,6.63,0,0,1-4.47,1.23c1.83,2.78,11.13.16,11.13,1s-4.95,3.89-7.24,4.67a9.93,9.93,0,0,1-4.36.2c.29-1.39.31-2.64-.26-2.87-1.18-.48-3.75.37-5.71,1.23s-5.49.07-5.49.07,3-.74,3.56-2.12c-2.48-.44-4.75-3.7-5.82-3.85s-2.9,1.26-4.16,1.08-1.19-1.2-1.67-2.34.41-1.86,0-3.53-2.41-3-2.93-4-.67-4.19-.67-6.2.74-9-.7-8.94-.78,2.38-.89,5.27-.78,3.34-1.19,5.23.7.89.29,3.22a13.15,13.15,0,0,1-3,6.54c-1.41,0-2.41,1.82-3.49,2.56s-1.55,1.81-.74,2.11,1.45,1.12,1.08,1.45-.41,1.26.7,1.41,1.89,2.3,1.48,3.08-4.93.15-6.86.37-3,1.37-4.19,1-2.64-1.59-3.3-.74.15,1.78.37,2.56,1.08,1.41,1.08,2.71c-3.45-.42-6.78,1.14-8.26,1.59,0-.06,0-.12,0-.17-.37-3.71-2.6-5.42-2.6-8.83,0-.69,0-1.36,0-2a6.58,6.58,0,0,0,2.26-4,6.49,6.49,0,0,0-2.32,1.26,2.92,2.92,0,0,0-.59-1.63c.06-.13.11-.26.16-.38a6.82,6.82,0,0,0,0-4.23c-.3-.33-1.33-.59-.3-1.45s1.38-3.23,1.38-3.23-8.5,7.73-9,7.57-1-2-1-2a18.52,18.52,0,0,0,2.67-.37c1-.26,2-2.67,2-3.49s-1.74-.44-2-.74.41-.44,1-1,.11-2.82-1.6-3.37-4.6-1.71-5-2.79a6.78,6.78,0,0,1,0-3.11,18.51,18.51,0,0,1,5.6,1.85,15,15,0,0,0,14.54.3c-3.18.78-8.53-.15-10.57-2.41,1.89.33,4.79-1.6,5.49-5s-.78-3.34-1.82-2.86-3.19.48-4-.44-3.15-1.15-3.56-2-2-2-2.78-2.74-1.56-1.49-1-3.79a8.34,8.34,0,0,0,7.61.34,9.45,9.45,0,0,0-3.41-1.75c1.22,0,6.93-4.64,6.12-6.86s-6.2-1.74-7.53-1.22a7.72,7.72,0,0,1-4.83-.4c-1.06-.49-.5-.94-.55-1.72s-.89-.33-1.12-1.44.34-2.18,1.28-1.51a3.1,3.1,0,0,0,3.95-.39c1.51-1.28,2.4-3.84,1.12-4.62A10.33,10.33,0,0,1,383,61.41a4.32,4.32,0,0,0-3.45-2.28s.11-7.06,0-10.46-.33-12.52-1.06-12.52-.33,6.84-.39,9.29a26.92,26.92,0,0,1-1.87,7.91c-.76,1.83-.55,5.65-.55,5.65a5.53,5.53,0,0,0-4.37-1.43c2,.79,3.09,4.2,2.84,4.57s-2.65,2.31-2.73,4.17c-2.5-1.17-6.67,0-6.67,0s4.53.61,6,2.64c-4-.3-5.54,1.85-5.54,1.85s2.34-.29,4.87-.45,5.26.3,6.12,1.45A7.8,7.8,0,0,1,370,75.92c-1.75,0-3.09,1.41-4.35,1.37s-2.52.67-6,.89a13.35,13.35,0,0,0,4.5,1c1.37,0,1.7,1.26,3.67,1.7s2.26.19,4.15,1.86,4.23,1.63,4.27,2-.71,1.3-2.23,1.63a36.57,36.57,0,0,1-6.53,1.16c-1.89,0-2.86.92-4.53,1.14s-4.48-.85-5.19,0-.48,2.23,1.93,3.46,6.94,3.19,6.94,3.19-2.75,1.48-3.9,2.33-2.59,1.34-5.41,1.56-6.9,0-6.9,0,.16.15.44.36a10.11,10.11,0,0,1-1.72-1.17c-2.22-1.84-5.39-2.06-6.57-2.39s-2.83-2.73-1.1-3.56,1.94,1.89,8.12.28,8-7.69,11.07-12.92c-.78.67-3.39,3.18-5.45,3.73a67.6,67.6,0,0,1-8.4.89,6.72,6.72,0,0,0-3.62-2.22c2.45-.67,5.51-3.9,8.07-7.63a19.72,19.72,0,0,1-13.86,3.51c-.11-2.34-1.39-2.34-1.78-2.73s-.11-3,1.34-6.34-1.12-5.68-.67-8.07-.06-6.35-.5-8.74-3.35-2.9-3.68-4.95.45-4.62-1.05-4.79-2.06,5.23-1.39,7.24.72,7.68-.28,11-.78,5.85.22,8,.39,4.74.39,5.85-1.17,2.45-2.45,3.06-5.79,2.17-5.29,5.17,2.12,2.84,8.8,5.12c-.51,1.39-3.06,2.39-7.52,3.57A18.24,18.24,0,0,0,315.92,96s-3.62-1.17-3.84,1.33,2.28,3,6.29,3a47.47,47.47,0,0,1,6.29.34,9.48,9.48,0,0,1-3.23,3,13.64,13.64,0,0,1-5.74,2.17c-1.77.33-3.22,4.07-.16,5.18s5.07-.84,9.15-.42c-.08,2.53,0,4.59-.49,3.76a5.21,5.21,0,0,0-4.68-2.22c-1.71.18-1.78,2.28-1.12,3.25.52.74,1.86,2.65,3.16,4.68a5.8,5.8,0,0,1-1.68.63c-1.56.17-6.9,4.23-12.24,9.13,6.58,1.13,8.65-1.87,11.3-1.5-2.05,1.81-.79,5.35-.73,5.53-.16-.08-3-1.51-5.15-1.26,3.2,3.3,10.28,4.53,10.28,4.53a42.29,42.29,0,0,1-7,1.6,1.77,1.77,0,0,0-.34-.16c-1.66-.62-8.4-.45-12-1.23a31.13,31.13,0,0,1-8-3.56s3.06-1.78,3.23-2.62.05-4.78-1.5-5.56-2.62.61-4.9.45-7.74-2.62-13.53-7.63c2.4,1.28,14.25,2.67,18.09,1.61s6.79-.94,11.35-3.39c-2.83.95-8.68,1.06-12.63-1.39,6.29-2.73,6.29-5.9,5.57-7s-2.23-.61-3.9-.56-2.84.61-6.35-.61a62.24,62.24,0,0,0-7.39-2s8.34-2,11.07-3.85,5.34-4.11,4.34-7.06c0,0,4.68-.89,7.18-3a193.3,193.3,0,0,1-22.71,0c-6.23-.56-9.12-.45-10.74-1.84A23.92,23.92,0,0,0,269,86.6s-.45-2.79.49-3.18,4.79,1.18,9.46,1.34a40.23,40.23,0,0,0,10.47-1.5,34.59,34.59,0,0,1-6.85-1.17A14,14,0,0,1,278,78.7a24.53,24.53,0,0,0,4.9,1.39c2.34.33,4.4-1.28,7.74-3.18s3.78-4.56,2.28-7.23c1.61-1.22,3.28-5.51,3.28-5.51s-3.89,4.12-6.84,4.73-5.18,1-7.45.28-4.13-.28-6.35-.33-4.9-1.56-8.46-5.79c1.5,1.5,5.39.94,7.45-.11s6.51-4.62,7.18-6.13S281,54,280,53.65s-1.35.5-3.35,1.45-3.39,1.11-3.62.56.9-1.23,2.62-1.68,3.18-2.39,4.06-5a7.56,7.56,0,0,0-1.06-6.18c-.55-.72-1.89-1.17-3.05.5s-3.4,3.45-4.9,3.78-3.23-.39-7.35-1.5c2.34-.44,5.12-3.79,5.12-3.79s-6.23.67-6.62.51-1.34-2.34-.72-3,3.11-6,4.17-7.4,1.06-3.34.73-3.67-3.23,4.62-3.57,4.34-.56-4-.61-6.62a26.16,26.16,0,0,0-1.34-7.07c-.66-2.28-.77-6-.94-9.41A79.92,79.92,0,0,0,258.15,0S257,10.47,256.31,13.36s-.5,6.45-.5,10.3-1.45,7.51-1.72,10.85a23.82,23.82,0,0,0,1.14,7.68s-5,2.22-7.54,2.42-7.63-1-7.63-1,2.92,2.92,6.18,3.44c-3.06,1.53-7.62.45-7.62.45s.38,2.23,5,4.4,5.9.89,6.63,1.72,8.85,7.24,8.57,8.46-4.23,4.51-6.4,5a33.29,33.29,0,0,1-15.92-1.39c3.51,5.17,11.3,5.62,11.3,5.62s-7.74.84-10.57-.34a11.7,11.7,0,0,0-5.07-.94s2.17,4.51,5,5.12a27.11,27.11,0,0,1,6.57,2.06c3.17,1.33,8.91.22,8.91.22s-9,7.35-16,8.63c1.73,2.78,4.79,3.17,10.63,2.67s12.53-3.25,12.74-3.33a22.42,22.42,0,0,1-5.84,6.61c-3.95,3-5.45,2.56-7.23,2.34a6.33,6.33,0,0,0-5.4,1.45,13,13,0,0,1-6.9,3c-2.78.33-4.62.22-6.23-1.06s-4.51-1.28-4.51-1.28l0-.78s1,.5,4.79-.17a6,6,0,0,0,4.67-4.44,5.17,5.17,0,0,1-2.83,1.27c-.06-2.34-2.56-3.17-4.35-6.18S226,83,224.26,79.92s-1.17-4.17-1.28-7.79-1.06-4.07-1.4-6.29a71.45,71.45,0,0,1,0-8.57s-3.17,6.84-3.17,9.63.22,8.46-.39,10.68-3.67,6.63-3.67,6.63a33,33,0,0,1-.28-5.9c-2.67,4.14-.64,9.36-.56,9.56a14.43,14.43,0,0,1-2.67-4.94,10.89,10.89,0,0,0,5.51,10.9,21.3,21.3,0,0,1-3.67,2.56,3.47,3.47,0,0,0-2,3.4s-1-1.23-3-3.34c1.13,5.14,2.83,7.34,8.67,9-1.55,0-3.72,2.5-6.12,2.5s-6.56-2.11-7.4-2.39-2.67-.39-1.56,2.34,4.35,5,4.55,5.17a23.52,23.52,0,0,0-4.1-1.22c3.5,5.06,11.63,7.62,12.13,8.52s.56,5.17-.55,7.34-11.8,8.74-14.09,8.68-9-4.45-9-4.45,4-.11,9.51-.72,8.07-3.83,8.07-3.83a19.15,19.15,0,0,1-4.31.08c4.05-2.45,5.8-5.2,4.9-5.53s-8.16.48-11.94,0-8.69-4-8.69-4,7.13-3.89,7.43-5.86c2-.15,3.52-3,3.26-3.82a1.87,1.87,0,0,0-2.86-.59c-1.07.89-2.19.55-3.74.4s-3.64-1.89-3.46-2.37,2.08.07,3.27-.22,1.08-1.78,2.6-1.78a5.08,5.08,0,0,0,3.82-1.49c1,.33,2.41.6,2.93-.59a2.82,2.82,0,0,0-.26-2.41s2.23-2.15,2-4a7,7,0,0,0,4-4,10.84,10.84,0,0,1-6.9,2.59c-2.67,0-4.38.63-6,.63s-6.75.71-6.57-.07,2-2.11,4.49-2.74,4.51-2,4.88-3.12-.71-2.8-1.72-2.3a4.46,4.46,0,0,1-2.64.5c-.85-.09-1.76-1.47-3.23-1.31s-2.48-.36-2.37-.84.5-.28,2.78-1.74a6.84,6.84,0,0,0,2.67-4.44,4.6,4.6,0,0,1-2.06,1.26c-.35-.7-2-.65-2.74-.65s-2.3-.68-2.37-1.26,1.24-.91,2.14-1.54,2.4-1.76,2.1-2.84-1.93-1.26-2.47-1.59-1.91-1.25-1.91-2.1.41-1.93.49-3.75a12.23,12.23,0,0,0-.63-5.3c-.71-1.63-.37-6-.37-6a13.15,13.15,0,0,0-1,5.19c.08,2.82-.48,9.54-1.45,10.25s-2.74,1.7-2.93,3.56,2.53,3,2.53,3-3.23.41-4.12,2.15,1.75,5.05,1.75,5.05-1.3,0-2.94-.11a14,14,0,0,1-4-1.3s-.3,1.22,2.44,2.6a2.24,2.24,0,0,0-2.07,1.76,21.34,21.34,0,0,1-4.4-3.9c2,7.62,12,10,12,10a5.06,5.06,0,0,1-1.93,1.08,24.75,24.75,0,0,1-5.13.18c-2.37,0-3.93,1.89-3.89,3s1.12,3.15,4,2.71c-.15,1,1.89,1.67,4.48,3a29.16,29.16,0,0,0-9.2,1c-1.63.48-5-.26-5-.26l1.22,5.27s2.11.15,2.71,1.3,2.9,1.11,2.9,1.11a6.6,6.6,0,0,1-4.48,1.22c1.84,2.79,11.13.17,11.13,1s-4.95,3.9-7.23,4.68a10.13,10.13,0,0,1-4.37.2c.3-1.39.31-2.64-.25-2.87-1.19-.48-3.75.37-5.71,1.22s-5.49.08-5.49.08,3-.74,3.56-2.11c-2.49-.45-4.75-3.72-5.83-3.87s-2.89,1.27-4.16,1.08-1.18-1.19-1.67-2.34.41-1.85,0-3.52-2.4-3-2.93-4-.66-4.19-.66-6.19.74-9-.71-8.94-.78,2.37-.89,5.27-.78,3.33-1.18,5.23.7.89.29,3.23a13.17,13.17,0,0,1-3,6.53c-1.41,0-2.41,1.81-3.48,2.55s-1.56,1.82-.74,2.12,1.44,1.11,1.07,1.44-.41,1.27.71,1.42,1.89,2.3,1.48,3.08-4.93.14-6.86.36-3,1.38-4.19,1-2.64-1.6-3.31-.74.15,1.78.38,2.56,1.07,1.41,1.07,2.7c-4-.48-7.79,1.67-8.8,1.71s-2.26-.14-2.63.33-.89.9-2.15.37a8,8,0,0,0-3.38-.18s1.64-2.19,3.46-4.93.48-3.93.7-4.76,4-2.74,4.23-5.93c-1.16.14-3.93,2.54-4.08,2.67,0-.12.8-2.12,1.33-3.41a6.91,6.91,0,0,0,0-4.23c-.3-.33-1.34-.6-.3-1.45s1.37-3.22,1.37-3.22-8.49,7.71-9,7.56-1-2-1-2a18.52,18.52,0,0,0,2.67-.37c1-.26,2-2.67,2-3.49s-1.75-.44-2-.74.42-.45,1.05-1,.11-2.82-1.6-3.38-4.6-1.7-5-2.78a7,7,0,0,1,0-3.12,18.36,18.36,0,0,1,5.6,1.86,15.07,15.07,0,0,0,14.55.3c-3.19.77-8.53-.15-10.57-2.42,1.89.34,4.78-1.59,5.49-5s-.78-3.33-1.82-2.85-3.19.48-4-.45-3.15-1.14-3.56-2-2-2-2.78-2.74-1.56-1.49-1-3.79a8.33,8.33,0,0,0,7.6.33,9.36,9.36,0,0,0-3.41-1.74c1.23,0,6.94-4.64,6.12-6.86s-6.19-1.75-7.53-1.23A7.69,7.69,0,0,1,99.43,64c-1.06-.5-.5-.94-.56-1.72S98,62,97.76,60.83s.33-2.17,1.28-1.5a3.1,3.1,0,0,0,3.95-.39c1.5-1.28,2.39-3.84,1.11-4.62a10.32,10.32,0,0,1-3.72-4.51,4.31,4.31,0,0,0-3.46-2.28s.11-7.07,0-10.46-.33-12.52-1-12.52-.34,6.84-.39,9.29a27.09,27.09,0,0,1-1.87,7.9c-.77,1.84-.56,5.65-.56,5.65A5.49,5.49,0,0,0,88.69,46c2,.78,3.08,4.21,2.84,4.57s-2.65,2.31-2.73,4.17c-2.5-1.17-6.68,0-6.68,0s4.54.61,6,2.64c-4-.3-5.54,1.85-5.54,1.85s2.34-.3,4.86-.45,5.27.3,6.13,1.45a7.83,7.83,0,0,1-6.24,4.12c-1.74,0-3.08,1.41-4.34,1.37s-2.52.67-6,.89a13.35,13.35,0,0,0,4.49,1c1.37,0,1.7,1.26,3.67,1.7s2.26.19,4.16,1.86,4.23,1.63,4.26,2-.7,1.3-2.22,1.63a36.71,36.71,0,0,1-6.54,1.15c-1.89,0-2.85.93-4.52,1.15s-4.49-.85-5.19,0-.49,2.23,1.93,3.45S84,83.72,84,83.72s-2.75,1.49-3.9,2.34-2.6,1.33-5.42,1.56-6.9,0-6.9,0,2.15,1.9,3.67,2.08a3.59,3.59,0,0,1,2.64,1.56c.78.82,7.31.89,11.31.89s5.31-1.41,5.31-1.41S90.3,92.81,89,93s-1.49.82-4,2.08-3.34,1.3-7.13,1.27-5.53-.53-10.57-1.12c4,3.86,12,3.34,12,3.34a16.77,16.77,0,0,1-6.79,2c4.53,2,8.31.19,9.35.38s2.41,1.37,4,2,2.12,1.75,4,2.56,3.6.45,3.45.82-1.41.33-2.78.59-2.38,1.74-5.16,1.93-6.68-1.33-7.76-.78-.33,3.86.75,5.79,6,3.49,9,4,4.72,1.86,4.79,3-5.38,4.34-7.72,4.9-4.08-.22-6.38,0A3.57,3.57,0,0,0,75.27,131c1.34,2.49,6.5,5.19,6.5,5.19a10.33,10.33,0,0,1-4.49.78c-1.89-.29-5.34.19-3.15,3,1.41,1.8,6.29,2.77,9.56,3.24l-.32.25a58.4,58.4,0,0,1-7.09,4.86c-3,1.56-10.19,3.68-10.19,3.68s3.15-4.09,2.73-5.39-1.75-1.92-4.23-1.33c6.16-3,5.38-6.9,4.9-7.2s-1.38-.26-2.52.63-5.5,1.71-7.2,1.41a28.19,28.19,0,0,1-5-1.85,8.86,8.86,0,0,0,3.4,0c1-.4,1.45-1,3.23-1.18s3.71-2.42,2.3-5.79c5.68-.59,10.43-6.2,9.64-6.57s-3.63,2.79-6.19,3c1.3-3.53,2-8.13.22-8.53s-3.11,3-4.3,3.15-2.56,1.45-3.9,1.67-1.7,0-7.07-.29c3.18-.45,5.55-3.9,6-6.53s0-3.87-.86-4.13-1.7.71-2.6.71a7.21,7.21,0,0,1-2.93-.92c-1-.51-3.76,0-4,0,.22-.17,3.28-2.46,4.11-3.85s3-3.23,6.9-6.83c-1.15-.19-4.72,1.67-4.72,1.67a3.75,3.75,0,0,0-1.81-2.27c-1.34-.55-4.94,1.12-5.2,1s-.48-.47-.26-1.4c1,0,2.6-4.16,2.82-6s.38-6.46-.37-7.5a4.08,4.08,0,0,1-1-3.41c.3-1.41-.51-2.82-2.67-5.2,0,0-.48,9.43-.63,10.25s-.55.88-2,4.07-.44,10.84-1.33,9.38a5.19,5.19,0,0,0-4.68-2.23c-1.7.18-1.78,2.28-1.11,3.24s2.73,3.9,4.29,6.52.79,4.17.79,4.17a14.7,14.7,0,0,0-4,1.89c-2.76,1.63-1.3,5.71-1.23,5.9-.16-.09-3-1.51-5.15-1.26,3.19,3.3,10.28,4.52,10.28,4.52s-6.27,2.08-10,1.67-12.2-.37-12.39-.37,8,5,8,5-3.56-.92-5.76.16c2.27,2.26,8.5,2.33,8.5,2.33a14.46,14.46,0,0,0,6.21,1.75c0,1.73,4.33,3.82,4.33,3.82s-6.9,3.26-9.28,3.63-3.48-1.33-4.89-.15S25.15,147,27.9,147c-1.93.44-10.84,2.67-10.84,2.67s7.05.67,8.31,1.26,6.76-.22,9.13-.22,2,1.48,1.56,2.45-7.12,3.41-10.84,3.86-8.16,1.11-8.16,1.11a13.29,13.29,0,0,1,5.86,2.08c3.34,2,9.28,3.34,9.28,3.34l-5.79,2.15a78.57,78.57,0,0,1,13.88,1.41c-2.68,2.22-11.8,7.35-19.37,8.53,1.34,1,9.87,5.12,17.07,1-2.3,3.35-10.32,7.2-13.88,7.2s-6.6-3-6.6-3,.14,5.5,6.75,7.87c-2.75-.07-7.94,1.49-7.94,1.49s12.91,2.67,24.19-.37c-1.93,4.37-7.87,5.93-12.24,7s-5.86,0-13.14,1.12A26,26,0,0,0,31,203.56S29.31,205.79,18.25,207Zm537.17-78.89a23.72,23.72,0,0,0,6.18,6.17s-5.4-.94-6.18-1.5A23.33,23.33,0,0,1,555.42,128.09Zm-28.88,1.67a60.68,60.68,0,0,1-6,3.3s1.93-4.05.71-5.6c0,0,3.93-.75,8.83-1.75C527.24,126.75,527.76,128.79,526.54,129.76Zm-19.42-5.12c.72-.23,2.78.16,4.39-1.28s3.34-3.85,3.4-4.79a1.93,1.93,0,0,1,2.39-1.5c1.22.22,5.79,1.28,7.85.55-3.79-1.11-4.74-2.89-4.74-2.89l9.41.89c-5.28,4.45-17.92,10.91-19.64,10.85S506.39,124.86,507.12,124.64Zm-59.52,6.55c3.27,1.12,8.51-.21,10.57-.83a23,23,0,0,0-4.32,1.79,11.43,11.43,0,0,1-7.45,1.54A8.31,8.31,0,0,0,447.6,131.19Zm-6.84,8.29c1.41.22,1.63,2.22,5.86,2.59s6.38,1.19,9.5,1.12c-2.9,1-2.9,3-1.93,3.85s-3.64,5.57-12.1,8.76c6.09-4,9.13-10.61,7.28-11.65s-3.49,1.3-5.42.91-2.37-.83-3.64-.76-2.07-1.63-3.71-1.49a8.37,8.37,0,0,1-2.74-.14S439.35,139.25,440.76,139.48Zm-33.91,18.6.31.17a3.42,3.42,0,0,0-.33.33C406.84,158.38,406.85,158.21,406.85,158.08Zm-15.42-25c0,1.47,0,2.89-.05,4.15a9.18,9.18,0,0,0-2.86,0S389.84,135.45,391.43,133.09Zm-16.57-.62c.08,1.18-5.37,4.34-7.71,4.89s-4.08-.22-6.38,0a3.7,3.7,0,0,0-3.28,3.21,19.39,19.39,0,0,1-3-1.91c1.21-1.2,1.81-2.22,1.49-2.37s-1.42.6-2.66,1.43a31.69,31.69,0,0,1-2.46-2.39,13.27,13.27,0,0,0,.22-1.88c2.84.5,7.69,1.33,9,1.33,1.93,0,1.78-1.12,7.12-1.71a15,15,0,0,0,5.95-2.62A2.87,2.87,0,0,1,374.86,132.47ZM361,103.85l.31-.2c2.2.11,4.76.13,6.73.13,4,0,5.31-1.41,5.31-1.41s-.41,2-1.75,2.27-1.48.81-4,2.07-3.34,1.3-7.12,1.27a47.71,47.71,0,0,1-7-.66A41.65,41.65,0,0,0,361,103.85ZM351.14,111c0-1-1.61-2.44-1.61-2.44s.73-.17,1.9-.53c4.24,2.61,10.52,2.2,10.52,2.2a16.81,16.81,0,0,1-6.79,2c4.53,2,8.32.18,9.36.37s2.4,1.37,4,2c1.47.54,2,1.52,3.5,2.3a23.54,23.54,0,0,1-4.61,2.15c-3.06.72-12.74-1-15.58-1s-5.73-.73-9.74-4C349.53,113.53,351.14,112,351.14,111Zm-21.76,1.72a.86.86,0,0,0,.56-.35,6.68,6.68,0,0,1-.58,1.44A1.81,1.81,0,0,1,329.38,112.69Zm-17.92,33.09h.26a11.11,11.11,0,0,0,1.22.6,17.79,17.79,0,0,1-2.87.38Zm-38.67-29.3a23.7,23.7,0,0,0,6.17,6.18s-5.39-.94-6.17-1.5A23.47,23.47,0,0,1,272.79,116.48Zm-28.89,1.67a57.69,57.69,0,0,1-6,3.3s1.93-4,.7-5.6c0,0,3.93-.74,8.83-1.74C244.61,115.15,245.13,117.19,243.9,118.15ZM224.48,113c.72-.22,2.78.17,4.4-1.28s3.34-3.84,3.39-4.78a2,2,0,0,1,2.39-1.51c1.23.23,5.79,1.28,7.85.56-3.78-1.11-4.73-2.9-4.73-2.9l9.4.9c-5.28,4.45-17.91,10.9-19.64,10.85S223.76,113.25,224.48,113ZM165,119.58c3.26,1.13,8.5-.21,10.56-.82a23.51,23.51,0,0,0-4.31,1.78,11.48,11.48,0,0,1-7.46,1.55A8.25,8.25,0,0,0,165,119.58Zm-6.84,8.3c1.4.22,1.63,2.22,5.86,2.59s6.38,1.19,9.49,1.11c-2.89,1-2.89,3-1.92,3.86s-3.64,5.57-12.1,8.76c6.08-4,9.13-10.61,7.27-11.65s-3.49,1.3-5.42.91-2.37-.84-3.63-.76-2.08-1.64-3.71-1.49a8.6,8.6,0,0,1-2.75-.15S156.71,127.65,158.13,127.88Zm-34.66,14.31c-1.89,1.79-.33,3.79,1.06,4.46-1.34,1.11-.78,2.56-.28,3.72s-5.28,11.06-5.45,11.35c0-.28,1.7-10.19.33-11.45s-6.84-2.12-6.84-2.12c4.56-1.11,7.62-7.68,7.62-7.68S122.19,142.19,123.47,142.19Zm-11.8-8.73,5.85,1.16a65.75,65.75,0,0,0-10.47,2.07A19.31,19.31,0,0,0,111.67,133.46ZM84.5,143.28c1.37.17,2.31.25,2.31.25l-3,2.15S84.19,144.26,84.5,143.28ZM78.84,171.8a19.8,19.8,0,0,1-6.52-4.17,11.49,11.49,0,0,0,10.08-2.51C82.4,167.35,78.73,168.58,78.84,171.8ZM72,157.22a15.5,15.5,0,0,0,7.4,0s-7.17,4.46-13.24,4.06A63.79,63.79,0,0,0,72,157.22Z"/></g></g></svg>